<?xml version="1.0" encoding="utf-8"?>
<!-- Generator: Adobe Illustrator 22.0.1, SVG Export Plug-In . SVG Version: 6.00 Build 0)  -->
<svg version="1.1" id="Layer_1" xmlns="http://www.w3.org/2000/svg" xmlns:xlink="http://www.w3.org/1999/xlink" x="0px" y="0px"
	 viewBox="0 0 290.9 156.3" style="enable-background:new 0 0 290.9 156.3;" xml:space="preserve">
<style type="text/css">
	.st0{fill:#434242;}
	.st1{fill:none;}
	.st2{fill:url(#SVGID_1_);filter:url(#Adobe_OpacityMaskFilter);}
	.st3{mask:url(#id0_1_);fill:#434242;}
</style>
<g id="Plan_x0020_1">
	<g id="_845922640">
		<path class="st0" d="M59.4,7.3h179.3c4.6,0,8.8,1.9,11.8,4.9c3,3,4.9,7.2,4.9,11.8v108.7c0,4.6-1.9,8.8-4.9,11.8h0
			c-3,3-7.2,4.9-11.8,4.9H59.4c-4.6,0-8.8-1.9-11.8-4.9l0,0c-3-3-4.9-7.2-4.9-11.8V24c0-4.6,1.9-8.8,4.9-11.8v0
			C50.6,9.2,54.8,7.3,59.4,7.3z M238.7,14.9H59.4c-2.5,0-4.8,1-6.4,2.7h0c-1.6,1.6-2.7,3.9-2.7,6.4v108.7c0,2.5,1,4.8,2.7,6.4l0,0
			c1.6,1.6,3.9,2.7,6.4,2.7h179.3c2.5,0,4.8-1,6.4-2.7l0,0c1.6-1.6,2.7-3.9,2.7-6.4V24c0-2.5-1-4.8-2.7-6.4S241.2,14.9,238.7,14.9z"
			/>
		<polygon class="st0" points="54.9,12.5 106.1,45.9 102,52.2 50.8,18.9 		"/>
		<polygon class="st0" points="248.2,19.1 195.5,53.4 191.4,47.1 244.1,12.8 		"/>
		<polygon class="st0" points="48.7,137.6 97.6,98.8 102.3,104.8 53.5,143.5 		"/>
		<polygon class="st0" points="243.6,144.4 195.9,103.4 200.8,97.6 248.5,138.6 		"/>
		<g>
			<path class="st0" d="M156.2,92.8c-1.8,2.8-3.8,4.8-6.1,6.1c-2.3,1.3-5.2,2-8.4,2c-4.9,0-8.6-1.4-11.1-4.1
				c-2.6-2.7-3.9-6.7-3.9-11.9c0-7.4,2.2-13.7,6.6-18.9c4.4-5.2,9.7-7.8,15.9-7.8c2.9,0,5.2,0.6,7.1,1.6c1.9,1.1,3.5,2.8,4.7,5.2
				l2.6-5.1h7.4L164,87.9c0,0.1-0.1,0.3-0.1,0.6c-0.2,0.9-0.3,1.5-0.3,1.8c0,1.2,0.4,2.2,1.2,2.9c0.9,0.7,2,1.1,3.3,1.1
				c1.6,0,3.3-0.5,5.1-1.4c1.8-1,3.5-2.3,5-4.1c2.3-2.4,4.1-5.2,5.3-8.5c1.2-3.2,1.8-6.7,1.8-10.3c0-8.1-3-14.6-9-19.7
				c-6-5-13.7-7.6-23.4-7.6c-4.4,0-8.5,0.5-12.2,1.5c-3.8,1-7.2,2.5-10.3,4.5c-5.8,3.6-10.2,8.2-13.4,13.9c-3.1,5.7-4.7,12-4.7,18.9
				c0,10,3.3,17.9,10,23.9c6.7,6,15.6,9,26.7,9c5.3,0,10.5-0.8,15.5-2.4c5-1.6,9.7-3.8,13.9-6.8l3.2,4.8c-4.8,3.6-9.8,6.3-15.3,8.1
				c-5.4,1.8-11.1,2.7-17,2.7c-6.1,0-11.7-0.8-16.8-2.3c-5.1-1.5-9.6-3.8-13.5-6.8c-4.9-3.8-8.6-8.2-11.1-13.2
				c-2.4-5-3.7-10.7-3.7-17.1c0-5.2,0.8-10.3,2.5-15c1.7-4.7,4.1-9.1,7.3-13c4.7-5.7,10.3-10,16.9-13c6.6-2.9,13.9-4.5,22-4.5
				c5.3,0,10.3,0.7,15.1,2.2c4.8,1.4,8.8,3.5,12.2,6.1c4.2,3.2,7.4,7,9.5,11.3c2.1,4.3,3.1,9,3.1,14.4c0,5.2-1,10-3.1,14.5
				c-2.1,4.5-5,8.2-8.8,11.3c-2.2,1.8-4.6,3.1-7.2,4c-2.6,0.9-5.3,1.4-8.1,1.4c-3.4,0-5.9-0.7-7.5-1.9c-1.6-1.3-2.4-3.3-2.4-6V92.8z
				 M159.1,72.6c-0.5-2.7-1.4-4.8-2.9-6.2c-1.5-1.5-3.5-2.2-5.9-2.2c-4.1,0-7.5,2-10.4,6.2s-4.3,9.1-4.3,14.9c0,3.1,0.7,5.6,2.2,7.3
				c1.4,1.7,3.5,2.5,6.2,2.5c2.9,0,5.5-1.1,7.8-3.2c2.4-2.1,3.9-4.9,4.8-8.2L159.1,72.6z"/>
			<path class="st0" d="M149.1,129.2c14,0,26.7-5.7,35.9-14.9l0,0c9.2-9.2,14.9-21.9,14.9-35.9c0-14.1-5.7-26.8-14.9-36
				c-9.2-9.2-21.9-14.9-35.9-14.9c-14.1,0-26.8,5.7-36,14.9l0,0c-9.2,9.2-14.9,21.9-14.9,36c0,14,5.7,26.7,14.9,35.9
				C122.3,123.5,135,129.2,149.1,129.2z M188.5,117.7c-10.1,10.1-24,16.3-39.4,16.3s-29.3-6.2-39.4-16.3l0,0
				c-10.1-10.1-16.3-24-16.3-39.4c0-15.4,6.2-29.3,16.3-39.4l0,0c10.1-10.1,24-16.3,39.4-16.3s29.3,6.2,39.4,16.3s16.3,24,16.3,39.4
				C204.8,93.7,198.6,107.6,188.5,117.7L188.5,117.7z"/>
		</g>
	</g>
</g>
</svg>
