<?xml version="1.0" encoding="utf-8"?>
<!-- Generator: Adobe Illustrator 22.0.1, SVG Export Plug-In . SVG Version: 6.00 Build 0)  -->
<svg version="1.1" id="Layer_1" xmlns="http://www.w3.org/2000/svg" xmlns:xlink="http://www.w3.org/1999/xlink" x="0px" y="0px"
	 viewBox="0 0 218.8 151.1" style="enable-background:new 0 0 218.8 151.1;" xml:space="preserve">
<style type="text/css">
	.st0{fill:#434242;}
	.st1{fill:none;}
	.st2{fill:url(#SVGID_1_);filter:url(#Adobe_OpacityMaskFilter);}
	.st3{mask:url(#id0_1_);fill:#434242;}
</style>
<g id="Plan_x0020_1">
	<g id="_845879792">
		<path class="st0" d="M109.8,103.6c12.2,0,23.3-3.6,31.3-9.4c7.7-5.7,12.5-13.4,12.5-21.9S148.8,56,141,50.3
			c-8-5.8-19-9.4-31.3-9.4c-12.2,0-23.3,3.6-31.2,9.4C70.8,56,66,63.8,66,72.3s4.8,16.3,12.6,21.9C86.5,100,97.5,103.6,109.8,103.6z
			 M143.8,98c-8.7,6.4-20.8,10.3-34,10.3c-13.2,0-25.3-3.9-34-10.3c-8.9-6.5-14.5-15.6-14.5-25.8s5.6-19.2,14.5-25.8
			c8.8-6.4,20.8-10.3,34-10.3c13.3,0,25.3,4,34,10.3c9,6.5,14.5,15.6,14.5,25.8S152.8,91.5,143.8,98z"/>
		<ellipse class="st0" cx="109.8" cy="72.3" rx="33.7" ry="24.7"/>
		<path class="st0" d="M66,72.3C66,84.2,70.3,93,77.3,99c8,6.7,19.5,10,32.4,10c12.7,0,24.2-3.5,32.1-10.3
			c7.3-6.2,11.7-15,11.7-26.5h4.7c0,13-5.1,23-13.4,30.1c-8.9,7.5-21.4,11.4-35.2,11.4c-13.9,0-26.6-3.6-35.5-11.1
			c-8.1-6.9-13-16.9-13-30.4H66z"/>
		<path class="st0" d="M90.1,44.1H64.6c-2.2,0-3.8,1-5,2.5c-1.5,1.7-2.6,4.1-3.5,6.7L28,132c-0.1,0.4-0.2,0.8-0.2,1.2
			c0,1.1,0.6,2.3,1.5,3.2c1,1.1,2.5,2,4.1,2.6l0,0c1,0.4,2.1,0.6,3.2,0.6H183c1.1,0,2.3-0.2,3.4-0.7h0c1.5-0.6,2.9-1.5,3.9-2.6
			c0.9-0.9,1.4-2,1.4-3.1c0-0.4-0.1-0.8-0.2-1.2l-30-78.7c-1-2.6-2.1-5-3.5-6.7c-1.2-1.5-2.8-2.5-5-2.5h-23.6v-4.7H153
			c3.8,0,6.5,1.6,8.6,4.1c1.9,2.3,3.2,5.2,4.4,8.1l30,78.7c0.4,1,0.5,2,0.5,2.9c0,2.4-1,4.5-2.7,6.3c-1.5,1.6-3.5,2.9-5.7,3.8v0
			c-1.7,0.6-3.4,1-5.1,1H36.5c-1.6,0-3.2-0.3-4.8-0.9l0,0c-2.3-0.8-4.4-2.2-5.9-3.8c-1.7-1.8-2.7-4-2.7-6.4c0-0.9,0.1-1.8,0.5-2.8
			l28.1-78.7c1-3,2.4-5.9,4.3-8.2c2.2-2.5,4.9-4.1,8.6-4.1h25.5V44.1z"/>
		<path class="st0" d="M33.3,126.4h153l0,0c0,6-4.9,10.9-10.9,10.9H44.1C38.2,137.2,33.3,132.3,33.3,126.4L33.3,126.4z"/>
		<path class="st0" d="M109.8,35.8c17.3,0,34.7,0,44.2,0.2s11.3,0.6,13.4,4.2c2.2,3.6,4.8,10.5,6.8,14.3c2,3.8,3.6,4.7,8.9,5
			c5.4,0.4,14.5,0.2,20.7-0.2c6.2-0.4,9.4-1.1,11-2.8c1.6-1.7,1.4-4.3-0.7-9.9s-6.4-14.4-12.8-21.5c-6.5-7.1-15.2-12.6-26.1-15.4
			c-10.9-2.9-23.8-3.3-35.1-3.4c-11.3-0.2-20.8-0.1-30.4-0.1c-9.6,0-19.1,0-30.4,0.1S55.2,6.8,44.3,9.7C33.5,12.6,24.7,18,18.3,25.2
			C11.8,32.3,7.6,41,5.4,46.7c-2.2,5.7-2.3,8.3-0.7,9.9c1.6,1.6,4.8,2.4,11,2.8c6.2,0.4,15.4,0.5,20.7,0.2c5.4-0.3,6.9-1.2,8.9-5
			c2.1-3.9,4.6-10.7,6.8-14.3c2.2-3.6,3.9-4,13.4-4.2C75.1,35.8,92.4,35.8,109.8,35.8z M33.3,24.1h153l0,0c0-6-5-9.4-10.9-10.8
			c-21.7-5.4-43.7-4.7-65.6-4.7s-50.5-0.5-65.6,4.7C38.5,15.2,33.3,18.2,33.3,24.1L33.3,24.1z"/>
	</g>
</g>
</svg>
